<?xml version="1.0" encoding="UTF-8"?>
<svg xmlns="http://www.w3.org/2000/svg" version="1.1" viewBox="0 0 200 200">
  <defs>
    <style>
      .cls-1 {
        fill: #fff;
        fill-rule: evenodd;
      }
    </style>
  </defs>
  <!-- Generator: Adobe Illustrator 28.6.0, SVG Export Plug-In . SVG Version: 1.2.0 Build 709)  -->
  <g>
    <g id="gear">
      <path id="shape1" class="cls-1" d="M84.17,9.19c-3.12,0-5.77,2.31-6.19,5.4l-1.68,12.31c-.31,2.31-1.9,4.23-4.04,5.13-6.98,2.92-13.4,6.89-19.09,11.7-1.8,1.53-4.28,2.06-6.5,1.24l-11.91-4.37c-2.93-1.08-6.21.18-7.67,2.94l-14.64,27.62c-1.46,2.76-.66,6.18,1.88,8l10.56,7.58c1.9,1.36,2.85,3.67,2.63,6-.22,2.31-.33,4.65-.33,7.02s.11,4.71.33,7.02c.22,2.33-.74,4.63-2.63,6l-10.56,7.58c-2.54,1.82-3.34,5.24-1.88,8l14.64,27.62c1.46,2.76,4.74,4.02,7.67,2.94l11.91-4.37c2.22-.81,4.7-.29,6.5,1.24,5.69,4.82,12.11,8.78,19.09,11.7,2.15.9,3.73,2.82,4.04,5.13l1.68,12.31c.42,3.09,3.07,5.4,6.19,5.4h31.26c3.12,0,5.77-2.31,6.19-5.4l1.59-11.64c.32-2.36,1.97-4.31,4.19-5.18,7.38-2.9,14.18-6.96,20.17-11.95,1.8-1.5,4.26-2.02,6.46-1.21l10.82,3.97c2.93,1.08,6.21-.18,7.67-2.94l14.64-27.62c1.46-2.76.66-6.18-1.88-8l-9.1-6.54c-1.92-1.38-2.88-3.73-2.62-6.09.28-2.62.43-5.28.43-7.98s-.15-5.36-.43-7.98c-.25-2.35.7-4.7,2.62-6.09l9.1-6.54c2.54-1.82,3.34-5.24,1.88-8l-14.64-27.62c-1.46-2.76-4.74-4.02-7.67-2.94l-10.82,3.97c-2.2.81-4.66.3-6.46-1.21-5.99-4.99-12.79-9.05-20.17-11.95-2.22-.87-3.86-2.82-4.19-5.18l-1.59-11.64c-.42-3.09-3.07-5.4-6.19-5.4h-31.26ZM99.8,129.28c16.3,0,29.52-13.22,29.52-29.52s-13.22-29.52-29.52-29.52-29.52,13.22-29.52,29.52,13.22,29.52,29.52,29.52Z"/>
    </g>
  </g>
</svg>