<?xml version="1.0" encoding="UTF-8"?>
<svg xmlns="http://www.w3.org/2000/svg" version="1.1" viewBox="0 0 430 242">
  <defs>
    <linearGradient id="Gradient1">
      <stop class="stop1" offset="0%"> <animate attributeName="stop-color" values="#F51372; #7330D8; #2F7AD7; #ADDA2F; #F51372" dur="8s" repeatCount="indefinite"></animate> </stop>
      <stop class="stop2" offset="25%"> <animate attributeName="stop-color" values="#7330D8; #2F7AD7; #ADDA2F; #F51372; #7330D8" dur="8s" repeatCount="indefinite"></animate> </stop>
      <stop class="stop3" offset="75%"> <animate attributeName="stop-color" values="#2F7AD7; #ADDA2F; #F51372; #7330D8; #2F7AD7" dur="8s" repeatCount="indefinite"></animate> </stop>
      <stop class="stop4" offset="100%"> <animate attributeName="stop-color" values="#ADDA2F; #F51372; #7330D8; #2F7AD7; #ADDA2F;"  dur="8s" repeatCount="indefinite"></animate> </stop>
    </linearGradient>
    <linearGradient id="Gradient2" x1="0" x2="0" y1="0" y2="1">
      <stop class="stop5" offset="20%"></stop>
      <stop class="stop6" offset="100%"></stop>
    </linearGradient>
    <style>
      .cls-1, .cls-2, .cls-3, .cls-4, .cls-5, .cls-6 {
        stroke-width: 0px;
      }

      .cls-1, .cls-3 {
        fill: #220052;
      }

      .cls-2 {
        fill: #fffbee;
      }

      .cls-3 {
        opacity: .5;
      }

      .cls-4 {
        fill: url(#Gradient1);
      }

      .cls-5 {
        fill: #fff;
      }

      .cls-6 {
        fill: url(#Gradient2);
      }

      .stop1 {
        stop-color: #F51372;
      }

      .stop2 {
        stop-color: #7330D8;
      }

      .stop3 {
        stop-color: #2F7AD7;
      }

      .stop4 {
        stop-color: #ADDA2F;
      }

      .stop5 {
        stop-color: #2A3AA7;
      }

      .stop6 {
        stop-color: rgba(42,58,167,0);
      }
    </style>
  </defs>
  <g id="shadow">
    <path id="shadow-2" data-name="shadow" class="cls-3" d="M381.81,122.26l-.83,45.66c-.03,1.83-.87,3.55-2.3,4.71l-18.14,14.63-.45,24.77-15.93,6.87-41.63-.76c-3.92-.08-6.13-3.45-6.07-6.3l.12-6.48h-.23l-8.16,7.57h-153.39l-7.85-6.73s-4.96.18-4.96.18l.13,5.33c.08,3.12-2.44,6.24-6.02,6.34l-41.56,1.04-17.66-6.84-1.16-46.34-1.24.03-6.29-4.34,3.08-40.08c.24-3.17,2.82-5.62,6-5.71,0,0,54.63-1.34,54.63-1.34,13.55.07,21.15,5.65,21.59,5.97l.31-6.38h-4.24l-2.66-3.1,7.51-27.86c.73-2.68,3.19-4.55,5.96-4.55l148.79-.06c4.28,0,6.31,3.75,6.17,6.47l-1.4,29.54,81.81,1.49c3.94.07,6.12,3.49,6.06,6.29Z"/>
  </g>
  <g id="base">
    <path id="base-2" data-name="base" class="cls-1" d="M421.96,78.09l-1.03,56.65c-.03,2.27-1.08,4.41-2.85,5.84l-22.51,18.15-.56,30.73-19.76,8.52-51.65-.94c-4.86-.1-7.61-4.28-7.53-7.82l.15-8.03h-.29l-10.12,9.4H115.49l-9.73-8.35s-6.16.23-6.16.23l.16,6.61c.1,3.88-3.03,7.75-7.47,7.86l-51.56,1.29-21.91-8.49-1.44-57.5-1.54.04-7.81-5.39,3.82-49.73c.3-3.93,3.5-6.98,7.44-7.09,0,0,67.78-1.67,67.78-1.67,16.81.08,26.24,7.01,26.78,7.41l.39-7.92h-5.26l-3.31-3.85,9.32-34.57c.91-3.32,3.96-5.65,7.4-5.65l184.61-.08c5.31,0,7.83,4.65,7.66,8.03l-1.74,36.65,101.5,1.85c4.89.08,7.6,4.33,7.52,7.81Z"/>
  </g>
  <g id="extrude">
    <path id="extrude-2" data-name="extrude" class="cls-4" d="M191.93,132.12h2.73v35.12l2.48,9.47h24.18l.79-9.47v-6.26h5.19c2.02,0,3.04,1.16,3.04,3.5v12.22h24.91l5.37-9.47v-15.14c0-5.01-1.42-8.78-4.28-11.32-.71-.63-1.54-1.2-2.46-1.69l2.31-6.45v2.15h11.67l.05,41.92h23.9l10.32-9.47-.04-32.46h1.45l5.6-7.19-.29,16.34,21.61,18.77-.37,20.57,31.56.57,19.76-8.5.43-23.35,25.3-20.41.86-47.54-34.61-.62-16.75,17.53h0l.32-17.83-34.61-.62-9.33,14.4h-51.31l-3.37,10.96s-1.83-4.14-4.47-6.26c-3.9-3.13-9.85-4.69-17.85-4.69h-44.54l-2.7,19.72,3.18,15.5ZM110.27,91.57c-.65-.9-1.35-1.73-2.11-2.47-4.85-4.79-12.54-7.04-23.07-6.78l-59.82,1.51-2.21,28.81,7.85,5.38,1.44,57.51,21.82,8.48,31.56-.79-.36-14.28,16.92-.43c8.37-.22,14.6-2.13,18.7-5.72l-.67,4.44,11.34,9.47h24.36l.82-9.56h3.02l6.64,9.56h25.06l2.38-17.38-2.92-11.82h-4.49l-4.87-32.77-4.57-17.85h-52.34l-1.83,13.34-12.66-18.66Z"/>
  </g>
  <g id="overlay">
    <path id="overlay-2" data-name="overlay" class="cls-6" d="M191.93,132.12h2.73v35.12l2.48,9.47h24.18l.79-9.47v-6.26h5.19c2.02,0,3.04,1.16,3.04,3.5v12.22h24.91l5.37-9.47v-15.14c0-5.01-1.42-8.78-4.28-11.32-.71-.63-1.54-1.2-2.46-1.69l2.31-6.45v2.15h11.67l.05,41.92h23.9l10.32-9.47-.04-32.46h1.45l5.6-7.19-.29,16.34,21.61,18.77-.37,20.57,31.56.57,19.76-8.5.43-23.35,25.3-20.41.86-47.54-34.61-.62-16.75,17.53h0l.32-17.83-34.61-.62-9.33,14.4h-51.31l-3.37,10.96s-1.83-4.14-4.47-6.26c-3.9-3.13-9.85-4.69-17.85-4.69h-44.54l-2.7,19.72,3.18,15.5ZM110.27,91.57c-.65-.9-1.35-1.73-2.11-2.47-4.85-4.79-12.54-7.04-23.07-6.78l-59.82,1.51-2.21,28.81,7.85,5.38,1.44,57.51,21.82,8.48,31.56-.79-.36-14.28,16.92-.43c8.37-.22,14.6-2.13,18.7-5.72l-.67,4.44,11.34,9.47h24.36l.82-9.56h3.02l6.64,9.56h25.06l2.38-17.38-2.92-11.82h-4.49l-4.87-32.77-4.57-17.85h-52.34l-1.83,13.34-12.66-18.66Z"/>
  </g>
  <g id="party">
    <path id="party-2" data-name="party" class="cls-2" d="M373.36,83.42l-.75,41.21-8.33,6.18-8.1-6.48.43-23.38.32-17.83-34.61-.62-.87,47.54,24.54,21.32-.43,23.35,35.64.65h.19l.43-23.35,25.3-20.41.86-47.54-34.61-.62ZM184.61,147.51l-7.49-50.44-.03-.17h-52.34l-1.83,13.34-.87,6.38h5.85l-6.91,46.18-.67,4.44h27.66l.94-10.85h10.02l.93,10.76v.1h28.46l2.68-19.61.02-.12h-6.41ZM150.38,139.37l1.67-19.83h3.76l1.67,19.83h-7.11ZM116.18,125.98l-.34-13.35c-.22-8.69-1.88-15.44-5.01-20.25l-.13-.18c-.14-.21-.29-.43-.43-.62-.65-.9-1.35-1.73-2.11-2.47-4.85-4.79-12.54-7.04-23.07-6.78l-43.04,1.08-12,.3-4.78.12-2.21,28.81,7.71-.19.14,5.57,1.44,57.51h.22s35.61-.9,35.61-.9l-.4-16.22,19.21-.48c10.62-.27,18.21-2.93,22.77-8.01,4.55-5.07,6.69-13.05,6.42-23.95ZM79.31,129.36c-.62.56-1.8.87-3.51.91l-8.72.22-.48-18.94,8.72-.22c1.73-.04,2.92.24,3.57.87.65.62,1,1.88,1.05,3.79l.24,9.8c.05,1.82-.24,3.01-.87,3.57ZM256.34,140.77c-.71-.63-1.54-1.2-2.46-1.69-2.79-1.47-6.56-2.33-11.31-2.53v-1.04c5.71-.28,9.99-1.83,12.84-4.65,2.85-2.81,4.28-6.72,4.28-11.74v-2.82c0-3.24-.46-6.06-1.38-8.45h0c-.23-.65-.51-1.25-.82-1.82-.16-.29-.31-.57-.49-.85-.17-.28-.35-.55-.54-.81-.18-.26-.37-.52-.58-.76-.16-.2-.33-.4-.5-.58-.47-.51-.98-1-1.54-1.44-3.9-3.13-9.85-4.69-17.85-4.69h-44.54l-2.7,19.72h5.92v50.62h27.45v-17.85h6.78c2.3,0,3.44,1.32,3.44,3.96v13.88h28.28v-15.14c0-5.01-1.42-8.78-4.28-11.32ZM232.23,126.22c0,1.61-.26,2.7-.78,3.29-.52.59-1.44.88-2.77.88h-6.57v-13.78h6.36c1.4,0,2.37.21,2.92.63.56.42.83,1.32.83,2.71v6.26ZM315.42,96.89h-53.75v22.75h13.26l.05,47.6h27.14l-.03-32.46-.02-15.14h13.35v-22.75Z"/>
  </g>
  <g id="mini">
    <path id="mini-2" data-name="mini" class="cls-5" d="M261.78,37.65l-1.67,30.83h-1.84l-3.01-30.83h-28.09v.07h-1.15l-3.35,12.29h4.49l-1.67,33.77h16.07l1.67-30.28h1.91l3.01,30.28h27.88l1.67-46.13h-15.93ZM165.06,37.72l-2.39,22.12h-1.64l-.51-22.12h-33.36l-3.35,12.29h5.23l-1.67,33.77h17.02l1.67-30.69h1.64l3.83,30.69h20.85l3.76-30.69h1.71l-1.67,30.69h18.7l1.67-46.06h-31.48ZM282.67,37.64l-2.19,46.14h17.84l2.19-46.14h-17.84ZM202.29,37.64l-2.19,46.14h17.84l2.19-46.14h-17.84Z"/>
  </g>
</svg>