<?xml version="1.0" encoding="UTF-8"?>
<svg xmlns="http://www.w3.org/2000/svg" version="1.1" viewBox="0 0 432 46">
  <defs>
    <style>
      .cls-1 {
        fill: #fff;
        opacity: .6;
      }

      .cls-2 {
        fill: #b14dff;
      }
    </style>
  </defs>
  <!-- Generator: Adobe Illustrator 28.6.0, SVG Export Plug-In . SVG Version: 1.2.0 Build 709)  -->
  <g>
    <g id="Progress">
      <path id="fill" class="cls-2" d="M426,21c0,8.28-6.72,15-15,15H21c-8.28,0-15-6.72-15-15s6.72-15,15-15h390c8.28,0,15,6.72,15,15Z"/>
      <path id="inner_shadow" class="cls-1" d="M21,8h390c7.94,0,14.43,6.19,14.95,14,.02-.33.05-.66.05-1,0-8.28-6.72-15-15-15H21c-8.28,0-15,6.72-15,15,0,.34.03.67.05,1,.52-7.81,7.01-14,14.95-14Z"/>
    </g>
  </g>
</svg>